<svg xmlns="http://www.w3.org/2000/svg" width="256.605" height="123.225" class="cursor-pointer overflow-visible h-auto w-[170px]"><path d="M72.584 177.1a15.239 15.239 0 0 0-6.442-1.324c-5.119 0-7.849 4.711-7.849 9.667v5.779h10.821l-1.237 6.031H58.3v31.389h-7.521v-31.389H44.42v-6.031h6.359v-3.47c0-12.221 5.948-18.252 16.77-18.252a16.5 16.5 0 0 1 6.363 1.237z" data-name="Path 4" style="fill:#fff" transform="translate(-44.42 -137.445)"/><path d="M186.284 230.717c-2.478-.66-7.434-3.138-7.434-10.324V170.42h7.514v48.98a6.378 6.378 0 0 0 5.039 6.193z" data-name="Path 5" style="fill:#fff" transform="translate(-130.359 -138.032)"/><path d="m469.4 267.14-.325-3.719c-2.893 3.138-5.7 4.624-11.564 4.624-8.181 0-14.208-5.2-14.208-13.545v-24.78h7.517v24.038c0 3.881 2.4 7.842 8.672 7.842 6.031 0 9-3.961 9-7.842V229.72h7.514v37.42z" data-name="Path 6" style="fill:#fff" transform="translate(-299.42 -175.943)"/><path d="M623.483 234.7c-6.024 0-13.293 3.221-13.293 13.877v17.679h-7.52v-37.42h7.11l.328 5.865c1.984-4.624 7.1-6.363 12.715-6.363l1.4 6.363z" data-name="Path 7" style="fill:#fff" transform="translate(-401.302 -175.061)"/><path d="M107.117 129.667a18.273 18.273 0 0 0-4.536 11.774l.005.288a17.947 17.947 0 0 0 7.073 13.594 30.286 30.286 0 0 0 20.624 5.35l3.776-18.505-6.836-12.546 3.35-7.822a30.4 30.4 0 0 0-21.295 5.849 14.853 14.853 0 0 0-2.159 2.02m24.4 32.379-.543.053a31.835 31.835 0 0 1-22.172-5.56 19.508 19.508 0 0 1-7.702-14.766l-.005-.327a19.53 19.53 0 0 1 7.293-14.989c6.617-4.954 14.475-6.986 23.349-6.046l1.002.106-3.86 9.023 6.742 12.388z" data-name="Path 9" style="fill:#fff;transform:translateX(-37px) translateY(-121.634px) rotate(45deg);transform-origin:118.36px 141.263px" transform-origin="118.36000061035156px 141.26275634765625px"/><path d="m125.59 129.577 7.498 10.62-2.63 20.407a44.006 44.006 0 0 0 19.154-5.712c.254-.177.533-.367.832-.57 3.362-2.281 8.991-6.1 8.999-11.566l.368.002-.37-.038h.053l-.053-.006c.56-5.429-4.647-9.807-7.759-12.424-.28-.234-.539-.457-.775-.657a44.04 44.04 0 0 0-17.678-7.518zm3.167 32.583 2.783-21.58-7.894-11.176 9.095-8.885.377.067a44.925 44.925 0 0 1 18.766 7.919c.231.196.489.415.766.647 3.107 2.61 8.878 7.462 8.287 13.641-.03 6.236-6.287 10.477-9.649 12.759-.296.2-.572.387-.823.561a44.846 44.846 0 0 1-20.826 6.019z" data-name="Path 8" style="fill:#fff;transform:translateX(-17px) translateY(-110.634px) rotate(-45deg);transform-origin:142.313px 141.34px" transform-origin="142.31258392333984px 141.33950424194336px"/><path d="M274.23 272.812a19.872 19.872 0 1 1 19.87 19.871 19.874 19.874 0 0 1-19.872-19.872" data-name="Path 10" style="fill:#eed63e;transform:translateX(-191.336px) translateY(-190.786px) scaleX(1) scaleY(1);transform-origin:294.101px 272.811px" transform-origin="294.10101318359375px 272.81101989746094px"/><path d="M443.3 380.936h1.5v-1.227h.04a3.71 3.71 0 0 0 3.048 1.465 4.369 4.369 0 0 0 4.235-4.664c0-2.5-1.62-4.671-4.253-4.671a3.808 3.808 0 0 0-3.03 1.5h-.04V365.4h-1.5zm4.311-7.7a2.951 2.951 0 0 1 2.969 3.2c0 1.789-1.01 3.348-2.951 3.348-1.879 0-2.9-1.634-2.9-3.366a3 3 0 0 1 2.878-3.181" data-name="Path 11" style="fill:#fff" transform="translate(-299.42 -262.681)"/><path d="M480.357 383.509h-1.5v1.255h-.036a3.826 3.826 0 0 0-3.034-1.5c-2.655 0-4.253 2.164-4.253 4.689a4.362 4.362 0 0 0 4.238 4.646 3.719 3.719 0 0 0 3.048-1.464h.036v1.226h1.5zm-4.4 1.143a2.964 2.964 0 0 1 2.98 3.2c0 1.789-1.021 3.347-2.958 3.347-1.887 0-2.9-1.634-2.9-3.365a2.994 2.994 0 0 1 2.875-3.182" data-name="Path 12" style="fill:#fff" transform="translate(-317.467 -274.099)"/><path d="m505.028 375.376 3.218-3.272h2.013l-3.78 3.762 4.495 5.082h-1.995l-3.557-4.033-.393.4v3.632h-1.509V365.42h1.508z" data-name="Path 13" style="fill:#fff" transform="translate(-337.918 -262.694)"/><path d="M534.551 388.259c.148-2.637-1.353-4.988-4.2-4.988-2.767 0-4.293 2.164-4.293 4.783a4.284 4.284 0 0 0 4.332 4.552 4.46 4.46 0 0 0 4.083-2.482l-1.277-.732a3.04 3.04 0 0 1-2.695 1.822 2.865 2.865 0 0 1-2.9-2.951h6.947zm-6.872-1.284a2.8 2.8 0 0 1 2.691-2.316 2.711 2.711 0 0 1 2.6 2.316z" data-name="Path 14" style="fill:#fff" transform="translate(-352.326 -274.106)"/><path d="M556.644 384.468h.036a2.276 2.276 0 0 1 1.955-1.208 2.66 2.66 0 0 1 1.356.415l-.714 1.374a1.463 1.463 0 0 0-.906-.4c-1.659 0-1.728 2.128-1.728 3.279v4.422h-1.5v-8.845h1.5z" data-name="Path 15" style="fill:#fff" transform="translate(-370.918 -274.099)"/><path d="M570.83 383.95h1.75l3.127 6.338 2.861-6.338h1.713l-6.532 13.815h-1.717l2.864-5.8z" data-name="Path 16" style="fill:#fff" transform="translate(-380.947 -274.54)"/><path d="M621.725 382.48v3.82h3.816v1.468h-3.816v3.824h-1.475v-3.824h-3.82V386.3h3.82v-3.82z" data-name="Path 17" style="fill:#fff" transform="translate(-410.099 -273.6)"/><path d="M670.176 386.148h-.04a3.4 3.4 0 0 0-2.748-1.486 3.167 3.167 0 0 0-3.124 3.279 3.1 3.1 0 0 0 3.048 3.272 3.434 3.434 0 0 0 2.879-1.526h.043v2.013a4.85 4.85 0 0 1-2.806.9 4.581 4.581 0 0 1-4.707-4.664 4.669 4.669 0 0 1 4.722-4.671 4.74 4.74 0 0 1 2.731.884v1.995z" data-name="Path 18" style="fill:#fff" transform="translate(-439.691 -274.105)"/><path d="M696.753 383.509h-1.5v1.255h-.04a3.807 3.807 0 0 0-3.026-1.5c-2.655 0-4.256 2.164-4.256 4.689a4.365 4.365 0 0 0 4.238 4.646 3.712 3.712 0 0 0 3.044-1.464h.04v1.226h1.5zm-4.4 1.143a2.961 2.961 0 0 1 2.976 3.2c0 1.789-1.021 3.347-2.958 3.347-1.883 0-2.9-1.634-2.9-3.365a3 3 0 0 1 2.879-3.182" data-name="Path 19" style="fill:#fff" transform="translate(-455.808 -274.099)"/><path d="M720.534 380.514h-1.5v-7.456h-.834v-1.389h.829v-3.524a4.515 4.515 0 0 1 .4-2.294 2.556 2.556 0 0 1 2.276-1.111 3.529 3.529 0 0 1 1.075.188v1.526a3.094 3.094 0 0 0-1.017-.206c-1.223 0-1.223.862-1.223 2.428v3h2.244v1.389h-2.244v7.452z" data-name="Path 20" style="fill:#fff" transform="translate(-475.16 -262.259)"/><path d="M740.725 388.259c.144-2.637-1.36-4.988-4.2-4.988-2.767 0-4.292 2.164-4.292 4.783a4.281 4.281 0 0 0 4.329 4.552 4.469 4.469 0 0 0 4.087-2.482l-1.28-.732a3.028 3.028 0 0 1-2.695 1.822 2.864 2.864 0 0 1-2.9-2.951h6.951zm-6.875-1.284a2.8 2.8 0 0 1 2.687-2.316 2.706 2.706 0 0 1 2.6 2.316z" data-name="Path 21" style="fill:#fff" transform="translate(-484.129 -274.106)"/></svg>